<svg width="119" height="79" viewBox="0 0 119 79" fill="none" xmlns="http://www.w3.org/2000/svg">
<g id="FaZe Clan svg">
<g id="Group">
<g id="Group_2">
<path id="Vector" d="M65.5007 39.2293H102.273L86.7598 55.0435H72.1083L48.2636 75.7456V38.6543H32.1756L27.8663 33.4787L26.4299 31.7536L19.535 23.7027H48.2636V17.9521H14.6512L3.15979 4.43823H110.604L97.3894 17.9521H65.5007V39.2293Z" fill="#E43D30"/>
<path id="Vector_2" d="M46.8272 78.9072V40.0909H31.6014L26.7176 34.3403L25.2812 32.9027L16.3753 22.2641H46.8275V19.1013H14.0769L0 3H114.34L98.2524 19.1013H66.9384V37.5029H105.722L87.3357 56.1925H72.397L46.8272 78.9072ZM33.0374 37.2159H49.9868V72.2941L71.5331 53.6045H86.4718L99.1121 40.6655H64.0637V16.5132H96.8143L107.157 5.87462H6.31836L15.2243 16.2259H49.6985V25.1394H22.6937L27.5775 30.89L29.0139 32.3277L33.0374 37.2159Z" fill="black"/>
</g>
</g>
</g>
</svg>
