<svg width="66" height="47" viewBox="0 0 66 47" fill="none" xmlns="http://www.w3.org/2000/svg">
<g id="payment-methods/dark/american-express" clip-path="url(#clip0_307_434)" filter="url(#filter0_d_307_434)">
<path id="Rectangle 1" d="M4.22314 5.31952C4.22314 2.67887 6.36381 0.538208 9.00445 0.538208H56.8176C59.4582 0.538208 61.5989 2.67887 61.5989 5.31952V34.0074C61.5989 36.648 59.4582 38.7887 56.8176 38.7887H9.00445C6.36381 38.7887 4.22314 36.648 4.22314 34.0074V5.31952Z" fill="#08122B"/>
<path id="Vector" d="M46.5649 12.337L45.4547 14.7843H47.6811L46.5649 12.337ZM33.7544 13.8535C33.9637 13.7542 34.0869 13.5382 34.0869 13.2699C34.0869 13.007 33.9574 12.8166 33.7482 12.7272C33.5576 12.628 33.2644 12.6165 32.9833 12.6165H30.9971V13.9801H32.9566C33.2705 13.9802 33.5327 13.976 33.7544 13.8535ZM8.30478 12.337L7.20719 14.7843H9.40899L8.30478 12.337ZM59.4071 28.0152H56.2922V26.6984H59.3945C59.702 26.6984 59.9174 26.6618 60.0471 26.5463C60.1697 26.4434 60.239 26.298 60.2378 26.146C60.2378 25.967 60.1596 25.825 60.0406 25.74C59.9238 25.6462 59.7532 25.6035 59.4723 25.6035C57.9578 25.5567 56.0685 25.6461 56.0685 23.703C56.0685 22.8125 56.6901 21.875 58.3827 21.875H61.5956V20.6533H58.6105C57.7097 20.6533 57.0552 20.8495 56.5918 21.1548V20.6533H52.1766C51.4706 20.6533 50.6419 20.8124 50.25 21.1548V20.6533H42.3651V21.1548C41.7377 20.7429 40.6787 20.6533 40.1903 20.6533H34.9894V21.1548C34.4931 20.7175 33.3889 20.6533 32.7162 20.6533H26.8957L25.5639 21.9646L24.3164 20.6533H15.6216V29.2219H24.1524L25.5246 27.8895L26.8175 29.2219L32.0758 29.2261V27.2104H32.593C33.2906 27.2206 34.1135 27.1948 34.8396 26.9093V29.2216H39.1769V26.9882H39.3861C39.653 26.9882 39.6795 26.9984 39.6795 27.2411V29.2211H52.8556C53.6921 29.2211 54.5666 29.0265 55.0507 28.6726V29.2211H59.2301C60.0998 29.2211 60.9492 29.1102 61.5954 28.8263V27.2301C61.2038 27.7513 60.44 28.0155 59.4069 28.0155L59.4071 28.0152ZM32.662 25.992H30.6494V28.0516H27.5144L25.5283 26.0189L23.4644 28.0516H17.0754V21.9112H23.5626L25.547 23.924L27.5986 21.9112H32.7525C34.0325 21.9112 35.4707 22.2337 35.4707 23.9341C35.4707 25.6399 34.0719 25.992 32.662 25.992ZM42.3396 25.7136C42.5674 26.0133 42.6003 26.2931 42.6069 26.8344V28.0516H40.9874V27.2835C40.9874 26.9141 41.0266 26.367 40.7267 26.0815C40.4913 25.8616 40.1319 25.8091 39.5433 25.8091H37.8196V28.0516H36.199V21.9112H39.9226C40.7395 21.9112 41.3341 21.9443 41.8635 22.201C42.3725 22.4808 42.6929 22.8641 42.6929 23.5646C42.6927 24.5446 41.9742 25.0445 41.5497 25.1982C41.9085 25.3186 42.2018 25.5347 42.3396 25.7136ZM49.0023 23.1811H45.2253V24.2974H48.91V25.5503H45.2253V26.772L49.0023 26.7774V28.0516H43.619V21.9112H49.0023V23.1811ZM53.147 28.0515H50.0056V26.7348H53.1345C53.4405 26.7348 53.6574 26.698 53.7934 26.5826C53.9042 26.4877 53.984 26.3496 53.984 26.1824C53.984 26.0033 53.8976 25.8613 53.7871 25.7761C53.6637 25.6825 53.4934 25.6401 53.2127 25.6401C51.7043 25.593 49.8153 25.6823 49.8153 23.7394C49.8153 22.8487 50.4304 21.9112 52.1214 21.9112H55.3551V23.218H52.3961C52.1028 23.218 51.9122 23.2282 51.75 23.3292C51.5731 23.4286 51.5076 23.5761 51.5076 23.7707C51.5076 24.0023 51.6577 24.1601 51.8605 24.2282C52.0307 24.282 52.2134 24.2977 52.4882 24.2977L53.3566 24.3193C54.2319 24.3384 54.8332 24.4765 55.1985 24.813C55.5123 25.1086 55.681 25.4819 55.681 26.1138C55.6809 27.4348 54.7736 28.0515 53.147 28.0515ZM40.6374 23.2801C40.4425 23.1748 40.1549 23.1692 39.8678 23.1692H37.8816V24.5483H39.8413C40.155 24.5483 40.4218 24.5381 40.6374 24.4217C40.8464 24.3067 40.9715 24.095 40.9715 23.8323C40.9715 23.5697 40.8464 23.3796 40.6374 23.2801ZM58.6589 23.1691C58.3655 23.1691 58.1704 23.1792 58.0062 23.28C57.836 23.3796 57.7706 23.527 57.7706 23.7218C57.7706 23.9533 57.9143 24.111 58.1233 24.1793C58.2936 24.2331 58.4761 24.2488 58.7447 24.2488L59.6191 24.27C60.5011 24.2899 61.0902 24.428 61.4492 24.7645C61.5146 24.8112 61.5539 24.8637 61.5989 24.9163V23.1692H58.659L58.6589 23.1691ZM32.7179 23.1691H30.6148V24.733H32.6992C33.3189 24.733 33.7042 24.4532 33.7045 23.922C33.7042 23.385 33.3002 23.1691 32.7179 23.1691ZM18.6818 23.1691V24.2855H22.2227V25.5384H18.6818V26.76H22.6474L24.4899 24.9586L22.7257 23.1691H18.6818ZM29.0369 27.4631V22.5403L26.5606 24.9621L29.0369 27.4631ZM18.8172 17.6044V18.6625H32.2927L32.2864 16.4242H32.5472C32.7299 16.43 32.783 16.4453 32.783 16.7196V18.6625H39.7527V18.1414C40.3148 18.4155 41.1891 18.6625 42.3396 18.6625H45.2717L45.8993 17.299H47.2905L47.9042 18.6625H53.5544V17.3673L54.4098 18.6625H58.9378V10.1008H54.4569V11.112L53.8294 10.1008H49.2314V11.112L48.6552 10.1008H42.4442C41.4044 10.1008 40.4908 10.2328 39.7526 10.6008V10.1008H35.4664V10.6008C34.9965 10.2215 34.3564 10.1008 33.6449 10.1008H17.9861L16.9355 12.3123L15.8565 10.1008H10.9246V11.112L10.3826 10.1008H6.17646L4.22322 14.1717V17.4279L7.11149 11.289H9.508L12.2511 17.1013V11.289H14.8837L16.9945 15.4535L18.9337 11.289H21.6192V17.4279H19.9659L19.9599 12.62L17.621 17.4279H16.2048L13.8599 12.6157V17.4279H10.5791L9.95937 16.0586H6.60105L5.97491 17.4279H4.22314V18.663H6.97915L7.60051 17.2994H8.99183L9.61158 18.663H15.0339V17.6204L15.5179 18.6673H18.3327L18.8168 17.6047L18.8172 17.6044ZM40.0518 12.0045C40.573 11.5146 41.3897 11.2886 42.5012 11.2886H44.0627V12.604H42.534C41.9456 12.604 41.6129 12.6836 41.2929 12.9678C41.0178 13.2262 40.8292 13.7148 40.8292 14.3582C40.8292 15.016 40.973 15.4902 41.2726 15.7999C41.521 16.0428 41.9724 16.1165 42.3968 16.1165H43.1215L45.3946 11.2888H47.8113L50.5422 17.0953V11.2889H52.9981L55.8333 15.5643V11.2889H57.4854V17.4277H55.1998L52.1425 12.8201V17.4277H48.8576L48.2299 16.0584H44.8793L44.2704 17.4277H42.3828C41.5989 17.4277 40.6062 17.27 40.0441 16.7486C39.4772 16.2274 39.1825 15.5214 39.1825 14.4051C39.1822 13.4945 39.3582 12.6623 40.0518 12.0045ZM36.7342 11.2887H38.3799V17.4277H36.7342V11.2887ZM29.3142 11.2887H33.024C33.848 11.2887 34.4557 11.3086 34.9772 11.5827C35.4874 11.8569 35.7933 12.2573 35.7933 12.9419C35.7933 13.9208 35.0752 14.4264 34.657 14.5783C35.0098 14.7006 35.3114 14.9165 35.455 15.0953C35.6828 15.4006 35.722 15.6734 35.722 16.2216V17.4276H34.0952L34.0891 16.6534C34.0891 16.284 34.1279 15.7527 33.8345 15.4575C33.5989 15.2417 33.2396 15.1947 32.6588 15.1947H30.9273V17.4277H29.3144L29.3142 11.2887ZM22.812 11.2887H28.2002V12.5671H24.4251V13.6736H28.1095V14.932H24.4251V16.158H28.2002V17.4276H22.812V11.2887Z" fill="#2557D6"/>
</g>
<defs>
<filter id="filter0_d_307_434" x="0.223145" y="0.538208" width="65.3755" height="46.2505" filterUnits="userSpaceOnUse" color-interpolation-filters="sRGB">
<feFlood flood-opacity="0" result="BackgroundImageFix"/>
<feColorMatrix in="SourceAlpha" type="matrix" values="0 0 0 0 0 0 0 0 0 0 0 0 0 0 0 0 0 0 127 0" result="hardAlpha"/>
<feOffset dy="4"/>
<feGaussianBlur stdDeviation="2"/>
<feComposite in2="hardAlpha" operator="out"/>
<feColorMatrix type="matrix" values="0 0 0 0 0 0 0 0 0 0 0 0 0 0 0 0 0 0 0.7 0"/>
<feBlend mode="normal" in2="BackgroundImageFix" result="effect1_dropShadow_307_434"/>
<feBlend mode="normal" in="SourceGraphic" in2="effect1_dropShadow_307_434" result="shape"/>
</filter>
<clipPath id="clip0_307_434">
<rect width="57.3757" height="38.2505" fill="white" transform="translate(4.22314 0.538208)"/>
</clipPath>
</defs>
</svg>
