<svg width="64" height="46" viewBox="0 0 64 46" fill="none" xmlns="http://www.w3.org/2000/svg">
<g id="payment-methods/dark/apple-pay" clip-path="url(#clip0_307_457)" filter="url(#filter0_d_307_457)">
<path id="Rectangle 1" d="M4.25439 5.18368C4.25439 2.61806 6.33425 0.538208 8.89987 0.538208H55.3546C57.9203 0.538208 60.0001 2.61806 60.0001 5.18368V33.0565C60.0001 35.6222 57.9203 37.702 55.3546 37.702H8.89987C6.33424 37.702 4.25439 35.6222 4.25439 33.0565V5.18368Z" fill="#1A1A1A"/>
<path id="Vector" d="M47.4695 29.7219C49.6105 29.7219 50.6183 28.9049 51.4985 26.4286L55.3547 15.6128H53.122L50.5361 23.9806H50.4908L47.9049 15.6241H45.6089L49.3291 25.9186L49.1298 26.5448C48.9891 27.441 48.1844 28.0804 47.2787 28.0143C47.1059 28.0143 46.7706 27.9964 46.6346 27.9784V29.6784C46.9113 29.7162 47.1908 29.7342 47.4695 29.7332V29.7219ZM40.0291 24.3055C38.858 24.3055 38.1147 23.7388 38.1147 22.8812C38.1147 21.9925 38.8315 21.475 40.2019 21.3928L42.6424 21.2388V22.0378C42.5885 23.3544 41.4769 24.3791 40.1604 24.3253C40.116 24.3234 40.0725 24.3196 40.0291 24.3159V24.3055ZM39.4397 25.9838C40.7686 26.0196 42.0115 25.3274 42.6792 24.178H42.7245V25.878H44.757V18.8371C44.757 16.7952 43.1241 15.4796 40.6099 15.4796C38.2781 15.4796 36.5535 16.8132 36.4902 18.6463H38.4689C38.705 17.7142 39.5909 17.0993 40.5466 17.2032C41.8897 17.2032 42.6424 17.8294 42.6424 18.9816V19.7617L39.9035 19.9251C37.3535 20.0791 35.9746 21.1227 35.9746 22.9379C35.9727 24.7786 37.3969 25.9941 39.4388 25.9941L39.4397 25.9838ZM27.6615 13.5803H30.1926C32.0985 13.5803 33.1875 14.5965 33.1875 16.3844C33.1875 18.1722 32.0985 19.1969 30.1841 19.1969H27.6615V13.5803ZM25.4657 11.7292V25.8751H27.6615V21.0528H30.7017C33.178 21.186 35.2927 19.2867 35.4258 16.8103C35.4334 16.6696 35.4343 16.5298 35.4287 16.3891C35.5458 13.9401 33.6559 11.8605 31.207 11.7424C31.0625 11.7358 30.9189 11.7367 30.7744 11.7433L25.4657 11.7292ZM18.1774 14.3689C16.9156 14.2962 15.8361 15.0858 15.2373 15.0858C14.6385 15.0858 13.7129 14.4058 12.7147 14.4246C11.3924 14.4586 10.1873 15.1906 9.54792 16.3485C8.18697 18.6898 9.19375 22.1559 10.5094 24.0609C11.1535 25.0053 11.926 26.0395 12.9413 26.0026C13.9028 25.9668 14.2843 25.3765 15.446 25.3765C16.6077 25.3765 16.9524 26.0026 17.9686 25.9838C19.0208 25.9658 19.6838 25.0393 20.3298 24.0949C20.785 23.4262 21.1392 22.6942 21.3819 21.9226C20.1418 21.3805 19.3381 20.1593 19.3315 18.8059C19.3504 17.6122 19.9756 16.5109 20.9918 15.8848C20.3439 14.9649 19.3041 14.4001 18.1792 14.3604L18.1774 14.3689ZM17.3897 13.1194C16.8372 13.8155 15.9919 14.215 15.1032 14.1989C15.0465 13.3319 15.3412 12.4791 15.9201 11.8312C16.4962 11.1625 17.3085 10.7432 18.1868 10.661C18.2491 11.5526 17.963 12.4328 17.3878 13.1166" fill="white"/>
</g>
<defs>
<filter id="filter0_d_307_457" x="0.254395" y="0.538208" width="63.7456" height="45.1638" filterUnits="userSpaceOnUse" color-interpolation-filters="sRGB">
<feFlood flood-opacity="0" result="BackgroundImageFix"/>
<feColorMatrix in="SourceAlpha" type="matrix" values="0 0 0 0 0 0 0 0 0 0 0 0 0 0 0 0 0 0 127 0" result="hardAlpha"/>
<feOffset dy="4"/>
<feGaussianBlur stdDeviation="2"/>
<feComposite in2="hardAlpha" operator="out"/>
<feColorMatrix type="matrix" values="0 0 0 0 0 0 0 0 0 0 0 0 0 0 0 0 0 0 0.7 0"/>
<feBlend mode="normal" in2="BackgroundImageFix" result="effect1_dropShadow_307_457"/>
<feBlend mode="normal" in="SourceGraphic" in2="effect1_dropShadow_307_457" result="shape"/>
</filter>
<clipPath id="clip0_307_457">
<rect width="55.7457" height="37.1638" fill="white" transform="translate(4.25439 0.538208)"/>
</clipPath>
</defs>
</svg>
