<svg width="47" height="19" viewBox="0 0 47 19" fill="none" xmlns="http://www.w3.org/2000/svg">
<g id="googlePay">
<path id="Vector" d="M22.2176 9.48469V14.886H20.4922V1.54716H25.0684C25.6147 1.53583 26.1577 1.63204 26.6663 1.83024C27.175 2.02843 27.639 2.3247 28.0317 2.70192C28.4284 3.05625 28.7441 3.49079 28.9576 3.97635C29.1711 4.4619 29.2774 4.98722 29.2695 5.51699C29.2809 6.0496 29.1762 6.57834 28.9625 7.06699C28.7488 7.55564 28.4313 7.99264 28.0317 8.34802C27.2315 9.1058 26.2437 9.48434 25.0684 9.48363H22.2176V9.48469ZM22.2176 3.18937V7.84568H25.1113C25.4285 7.85501 25.7442 7.7985 26.0382 7.67974C26.3322 7.56099 26.5979 7.38261 26.8185 7.15601C27.038 6.94415 27.2124 6.69074 27.3315 6.41078C27.4506 6.13081 27.512 5.82997 27.512 5.52604C27.512 5.22211 27.4506 4.92127 27.3315 4.6413C27.2124 4.36133 27.038 4.10793 26.8185 3.89607C26.6007 3.6647 26.3358 3.48194 26.0415 3.35993C25.7472 3.23791 25.4301 3.17941 25.1113 3.18831H22.2176V3.18937Z" fill="#E4E5E7"/>
<path id="Vector_2" d="M33.246 5.46155C34.5213 5.46155 35.528 5.79999 36.2661 6.47689C37.0041 7.15378 37.3728 8.08185 37.3721 9.26109V14.8859H35.7216V13.6194H35.6466C34.9321 14.6624 33.9819 15.1839 32.7959 15.1839C31.7834 15.1839 30.9364 14.8859 30.2548 14.2899C29.9277 14.0163 29.6662 13.6738 29.4893 13.2871C29.3124 12.9005 29.2247 12.4795 29.2324 12.0549C29.2324 11.1105 29.5918 10.3594 30.3105 9.80175C31.0293 9.24406 31.9889 8.96451 33.1892 8.96309C34.2137 8.96309 35.0575 9.14934 35.7206 9.52184V9.13018C35.7225 8.84071 35.6596 8.55444 35.5363 8.29212C35.413 8.0298 35.2325 7.79801 35.0079 7.61356C34.5516 7.20474 33.9569 6.98167 33.3424 6.98882C32.3786 6.98882 31.6159 7.39254 31.0543 8.19999L29.5346 7.24957C30.3706 6.05756 31.6077 5.46155 33.246 5.46155ZM31.0136 12.0921C31.0124 12.3102 31.0638 12.5254 31.1633 12.7198C31.2629 12.9142 31.4077 13.0821 31.5859 13.2096C31.9675 13.5077 32.4412 13.6657 32.9266 13.6566C33.6547 13.6554 34.3527 13.3676 34.8675 12.8563C35.4391 12.322 35.7249 11.6951 35.7249 10.9757C35.1869 10.55 34.4367 10.3371 33.4743 10.3371C32.7734 10.3371 32.1889 10.5049 31.7209 10.8405C31.2483 11.1811 31.0136 11.5951 31.0136 12.0921Z" fill="#E4E5E7"/>
<path id="Vector_3" d="M46.8455 5.75964L41.084 18.909H39.3028L41.4409 14.3081L37.6523 5.75964H39.5278L42.2661 12.3157H42.3036L44.9668 5.75964H46.8455Z" fill="#E4E5E7"/>
<g id="Group 13">
<path id="Vector_4" d="M15.2453 8.32034C15.2459 7.79814 15.2015 7.27685 15.1124 6.76221H7.83545V9.71351H12.0033C11.9181 10.1849 11.7375 10.6342 11.4727 11.0344C11.2078 11.4346 10.8641 11.7774 10.4622 12.0422V13.9579H12.9497C14.4061 12.6244 15.2453 10.6522 15.2453 8.32034Z" fill="#4285F4"/>
<path id="Vector_5" d="M7.83477 15.8088C9.91711 15.8088 11.6704 15.1297 12.949 13.959L10.4615 12.0433C9.76922 12.5094 8.87755 12.7755 7.83477 12.7755C5.82209 12.7755 4.11378 11.4281 3.5029 9.61243H0.94043V11.5867C1.58267 12.8559 2.56748 13.9228 3.78491 14.6683C5.00234 15.4139 6.40447 15.8087 7.83477 15.8088Z" fill="#34A853"/>
<path id="Vector_6" d="M3.50326 9.61243C3.18032 8.661 3.18032 7.63066 3.50326 6.67923V4.70496H0.940794C0.400517 5.77261 0.119141 6.95094 0.119141 8.14583C0.119141 9.34072 0.400517 10.5191 0.940794 11.5867L3.50326 9.61243Z" fill="#FBBC04"/>
<path id="Vector_7" d="M7.83477 3.51605C8.93519 3.4982 9.9985 3.91109 10.7948 4.66549L12.9972 2.47836C11.6007 1.17574 9.75059 0.460581 7.83477 0.482803C6.40447 0.482867 5.00234 0.877715 3.78491 1.62326C2.56748 2.36881 1.58267 3.43572 0.94043 4.70487L3.5029 6.67915C4.11378 4.86345 5.82209 3.51605 7.83477 3.51605Z" fill="#EA4335"/>
</g>
</g>
</svg>
