<svg width="48" height="30" viewBox="0 0 48 30" fill="none" xmlns="http://www.w3.org/2000/svg">
<g id="g13">
<g id="XMLID_328_">
<path id="rect19" d="M29.7865 3.3406L17.4399 3.38306L17.8141 25.9865L30.1607 25.944L29.7865 3.3406Z" fill="#FF5F00"/>
<path id="XMLID_330_" d="M18.253 14.7303C18.1766 10.1329 20.236 6.04796 23.4618 3.39827C21.027 1.48761 17.9744 0.338656 14.6654 0.349989C6.82618 0.376838 0.590845 6.83486 0.723049 14.7903C0.855252 22.7457 7.3045 29.1603 15.1437 29.1335C18.4528 29.1221 21.4667 27.9524 23.8378 26.0253C20.525 23.438 18.3294 19.3276 18.253 14.7303Z" fill="#EB001B"/>
<path id="path22" d="M46.8779 14.5367C47.0101 22.4921 40.7747 28.9502 32.9355 28.977C29.6265 28.9884 26.574 27.8394 24.1391 25.9287C27.4043 23.2789 29.4243 19.1941 29.3479 14.5968C29.2715 9.9994 27.0765 5.92903 23.7631 3.30175C26.1342 1.37462 29.1482 0.204892 32.4572 0.193559C40.2964 0.16671 46.7463 6.62127 46.8779 14.5367Z" fill="#F79E1B"/>
</g>
</g>
</svg>
