<svg width="26" height="29" viewBox="0 0 26 29" fill="none" xmlns="http://www.w3.org/2000/svg">
<g id="Group 11">
<path id="XMLID 8" d="M22.8918 7.52979C22.8918 7.6832 22.8918 7.83661 22.7384 7.99002C21.5111 14.1265 17.5225 16.1208 12.3065 16.1208H9.69849C9.08485 16.1208 8.47122 16.581 8.47122 17.1947L7.09051 25.7857L6.78369 28.2403C6.78369 28.7005 7.0905 29.0073 7.39733 29.0073H12.1531C12.7667 29.0073 13.227 28.5471 13.227 28.0869V27.78L14.1474 22.2572V21.9504C14.3008 21.3368 14.7611 21.03 15.2213 21.03H15.9884C20.5907 21.03 24.1191 19.189 25.0396 13.8196C25.4998 11.5185 25.193 9.67754 24.1191 8.45025C23.8123 8.14343 23.3521 7.83661 22.8918 7.52979Z" fill="#2199D6"/>
<path id="XMLID 6" d="M21.664 7.06961C21.5106 7.06961 21.3572 6.9162 21.0504 6.9162C20.897 6.9162 20.5902 6.76278 20.4367 6.76278C19.6697 6.60937 18.9026 6.60938 18.1356 6.60938H11.0787C10.9253 6.60938 10.7719 6.60937 10.6184 6.76278C10.3116 6.91619 10.0048 7.22302 10.0048 7.52984L8.4707 17.0413V17.3481C8.62411 16.7345 9.08433 16.2743 9.69797 16.2743H12.306C17.522 16.2743 21.5106 14.1265 22.7379 8.14349C22.7379 7.99007 22.7379 7.83666 22.8913 7.68325C22.5845 7.52984 22.2777 7.37643 21.9709 7.22302C21.8174 7.06961 21.664 7.06961 21.664 7.06961Z" fill="#252C5E"/>
<path id="XMLID 5" d="M10.0045 7.52977C10.0045 7.22295 10.3113 6.91613 10.6181 6.76272C10.7715 6.76272 10.9249 6.60931 11.0783 6.60931H18.1352C18.9023 6.60931 19.8228 6.6093 20.4364 6.76272C20.5898 6.76272 20.8966 6.76272 21.0501 6.91613C21.2035 6.91613 21.3569 7.06954 21.6637 7.06954C21.8171 7.06954 21.8171 7.06954 21.9705 7.22295C22.2773 7.37636 22.5842 7.52977 22.891 7.68319C23.1978 5.38202 22.891 3.84791 21.6637 2.46721C20.283 0.933099 17.8284 0.319458 14.7602 0.319458H5.70895C5.09531 0.319458 4.48166 0.779686 4.48166 1.39333L0.799805 25.0186C0.799805 25.4789 1.10663 25.9391 1.56686 25.9391H7.08964L8.47036 17.0413L10.0045 7.52977Z" fill="#2C3E8B"/>
</g>
</svg>
