<svg width="49" height="15" viewBox="0 0 49 15" fill="none" xmlns="http://www.w3.org/2000/svg">
<g id="visa">
<path id="Vector" d="M45.3787 0.533325H42.3729C41.4642 0.533325 40.7652 0.812934 40.3457 1.72166L34.6138 14.7934H38.6681C38.6681 14.7934 39.3671 13.0458 39.5069 12.6264C39.9263 12.6264 43.9108 12.6264 44.47 12.6264C44.6098 13.1157 44.9593 14.7235 44.9593 14.7235H48.5942L45.3787 0.533325ZM40.6254 9.69051C40.9749 8.85169 42.1632 5.70609 42.1632 5.70609C42.1632 5.77599 42.5127 4.86726 42.6525 4.37795L42.9321 5.63618C42.9321 5.63618 43.701 9.06139 43.8409 9.76041H40.6254V9.69051Z" fill="#3362AB"/>
<path id="Vector_2" d="M34.8942 10.1099C34.8942 13.0458 32.2379 15.0031 28.1137 15.0031C26.3662 15.0031 24.6885 14.6536 23.7798 14.2341L24.339 11.0186L24.8283 11.2283C26.0866 11.7876 26.9254 11.9973 28.4632 11.9973C29.5817 11.9973 30.77 11.5779 30.77 10.5992C30.77 9.97011 30.2807 9.5507 28.7428 8.85167C27.2749 8.15265 25.3176 7.03422 25.3176 5.00705C25.3176 2.21097 28.0438 0.323608 31.8884 0.323608C33.3564 0.323608 34.6146 0.603217 35.3835 0.952728L34.8243 4.02842L34.5447 3.74882C33.8457 3.46921 32.937 3.1896 31.6088 3.1896C30.1409 3.2595 29.4419 3.88862 29.4419 4.44784C29.4419 5.07696 30.2807 5.56627 31.6088 6.19539C33.8457 7.24392 34.8942 8.43226 34.8942 10.1099Z" fill="#3362AB"/>
<path id="Vector_3" d="M0.781738 0.673163L0.85164 0.393555H6.86323C7.70205 0.393555 8.33117 0.673163 8.54088 1.58189L9.86902 7.87309C8.54088 4.51778 5.46518 1.7916 0.781738 0.673163Z" fill="#F9B50B"/>
<path id="Vector_4" d="M18.3273 0.533281L12.2458 14.7234H8.12157L4.62646 2.84005C7.14294 4.4478 9.24001 6.96428 10.0089 8.71184L10.4283 10.1798L14.2031 0.463379H18.3273V0.533281Z" fill="#3362AB"/>
<path id="Vector_5" d="M19.9344 0.463379H23.779L21.3324 14.7234H17.4878L19.9344 0.463379Z" fill="#3362AB"/>
</g>
</svg>
