<svg width="241" height="62" viewBox="0 0 241 62" fill="none" xmlns="http://www.w3.org/2000/svg">
<g id="ALIENWARE svg" clip-path="url(#clip0_18_125)" filter="url(#filter0_d_18_125)">
<path id="Vector" d="M231.594 28.0258H4.76843V28.5464H231.594V28.0258Z" fill="white"/>
<path id="Vector_2" d="M88.1761 50.6757H82.1636L81.1279 53.2791H80.0922L84.7064 41.5636H85.5919L90.2216 53.2791H89.1859L88.1761 50.6757ZM87.8343 49.7697L85.1776 42.8653L82.5054 49.7853L87.8343 49.7697Z" fill="white"/>
<path id="Vector_3" d="M101.009 47.9733H98.694V53.2843H97.6997V41.5688H101.325C101.962 41.5503 102.594 41.6916 103.163 41.9802C103.654 42.2355 104.059 42.6302 104.328 43.1153C104.598 43.6133 104.735 44.1728 104.727 44.7398C104.745 45.4951 104.497 46.2326 104.028 46.8226C103.54 47.4188 102.847 47.809 102.086 47.916L105.411 53.2895H104.23L101.009 47.9733ZM98.694 47.0361H101.211C101.894 47.0878 102.57 46.865 103.091 46.4164C103.306 46.1996 103.474 45.9398 103.584 45.6537C103.694 45.3676 103.743 45.0617 103.728 44.7554C103.742 44.4515 103.691 44.1481 103.58 43.8653C103.468 43.5825 103.298 43.3269 103.08 43.1153C102.559 42.6765 101.889 42.4581 101.211 42.5061H98.694V47.0361Z" fill="white"/>
<path id="Vector_4" d="M114.044 42.4957V46.9475H119.419V47.8848H114.044V52.3367H120.072V53.2739H113.065V41.5584H120.072V42.4957H114.044Z" fill="white"/>
<path id="Vector_5" d="M137.612 41.5688V53.2843H136.576L129.114 43.0163V53.2791H128.135V41.5636H129.17L136.612 51.8003V41.5688H137.612Z" fill="white"/>
<path id="Vector_6" d="M153.148 50.6757H147.135L146.125 53.2791H145.09L149.704 41.5636H150.595L155.224 53.2791H154.189L153.148 50.6757ZM152.806 49.7697L150.149 42.8653L147.487 49.7853L152.806 49.7697Z" fill="white"/>
<path id="Vector_7" d="M227.871 8.35416L229.688 6.72961H224.111V8.35416H227.871Z" fill="white"/>
<path id="Vector_8" d="M230.905 12.8268L222.656 12.8164V2.56405H230.6V0.877014H220.786V14.4826H231.097V12.8268H230.905Z" fill="white"/>
<path id="Vector_9" d="M36.2237 0.877014H34.349V14.4826H43.3444L45.1621 12.8164H36.2237V0.877014Z" fill="white"/>
<path id="Vector_10" d="M62.8628 0.877014H60.9881V14.4774H62.8628V0.877014Z" fill="white"/>
<path id="Vector_11" d="M116.41 11.8375L107.456 0.908255L107.43 0.877014H105.54V14.4826H107.337V3.48046L116.291 14.4514L116.317 14.4826H118.186V0.877014H116.41V11.8375Z" fill="white"/>
<path id="Vector_12" d="M148.761 12.0614L144.722 0.960352L144.701 0.903076H142.992L138.932 12.0458L135.758 0.965559L135.742 0.903076H133.785L137.705 14.4462L137.72 14.5035H139.807L143.836 3.57421L147.85 14.5035H149.932L153.883 1.00721L153.914 0.903076H151.951L148.761 12.0614Z" fill="white"/>
<path id="Vector_13" d="M204.541 7.38564C204.851 7.09372 205.095 6.7379 205.256 6.3425C205.417 5.9471 205.491 5.52144 205.473 5.09461V4.62079C205.48 4.08114 205.365 3.54692 205.136 3.05872C204.917 2.59679 204.593 2.19356 204.189 1.88196C203.751 1.54256 203.251 1.29309 202.718 1.14779C202.103 0.973676 201.467 0.887782 200.828 0.892652H193.868V14.4826H195.742V2.56406H200.714C201.567 2.50674 202.407 2.78918 203.055 3.3503C203.234 3.5352 203.375 3.75447 203.468 3.99509C203.561 4.23571 203.606 4.49276 203.598 4.75096V5.18833C203.605 5.5045 203.524 5.81635 203.365 6.08913C203.207 6.34532 202.997 6.56528 202.749 6.73478C202.479 6.91334 202.182 7.04533 201.869 7.1253C201.531 7.21952 201.183 7.27198 200.833 7.28151H196.436V8.89043H200.455L203.712 14.441V14.4826H205.784L202.247 8.4895C203.082 8.33433 203.859 7.95263 204.494 7.38564" fill="white"/>
<path id="Vector_14" d="M13.7897 8.04692H9.41369L11.5628 2.92334L13.7897 8.04692ZM10.5841 0.720825L4.60788 14.3785L4.55609 14.493H6.62756L8.37795 10.4889L8.7301 9.6923H14.4991L16.5706 14.5035H18.6421L12.5364 0.720825H10.5841Z" fill="white"/>
<path id="Vector_15" d="M175.292 8.04692H170.916L173.065 2.92334L175.292 8.04692ZM172.086 0.720825L166.131 14.3785L166.079 14.493H168.15L169.901 10.4889L170.237 9.68188H176.006L178.078 14.441V14.493H180.149L174.038 0.720825H172.086Z" fill="white"/>
<path id="Vector_16" d="M85.8819 8.35416L87.7048 6.72961H82.1222V8.35416H85.8819Z" fill="white"/>
<path id="Vector_17" d="M80.6722 12.8164V2.56405H88.6111V0.877014H78.7975V14.4826H89.1135V12.8268H88.9219L80.6722 12.8164Z" fill="white"/>
<path id="Vector_18" d="M232.324 1.13736V0.877014H233.945V1.13736H233.277V2.56405H232.972V1.13736H232.324Z" fill="white"/>
<path id="Vector_19" d="M234.686 0.877014L235.39 1.88194L236.115 0.877014H236.431V2.56405H236.131V1.29357L235.483 2.20477H235.302L234.665 1.29357V2.56405H234.36V0.877014H234.686Z" fill="white"/>
</g>
<defs>
<filter id="filter0_d_18_125" x="0.556091" y="0.720825" width="239.875" height="60.5583" filterUnits="userSpaceOnUse" color-interpolation-filters="sRGB">
<feFlood flood-opacity="0" result="BackgroundImageFix"/>
<feColorMatrix in="SourceAlpha" type="matrix" values="0 0 0 0 0 0 0 0 0 0 0 0 0 0 0 0 0 0 127 0" result="hardAlpha"/>
<feOffset dy="4"/>
<feGaussianBlur stdDeviation="2"/>
<feComposite in2="hardAlpha" operator="out"/>
<feColorMatrix type="matrix" values="0 0 0 0 0 0 0 0 0 0 0 0 0 0 0 0 0 0 0.7 0"/>
<feBlend mode="normal" in2="BackgroundImageFix" result="effect1_dropShadow_18_125"/>
<feBlend mode="normal" in="SourceGraphic" in2="effect1_dropShadow_18_125" result="shape"/>
</filter>
<clipPath id="clip0_18_125">
<rect width="231.875" height="52.5583" fill="white" transform="translate(4.55609 0.720825)"/>
</clipPath>
</defs>
</svg>
