<svg width="240" height="56" viewBox="0 0 240 56" fill="none" xmlns="http://www.w3.org/2000/svg">
<g id="Group" filter="url(#filter0_d_18_246)">
<path id="Vector" d="M117.195 0.0396118H76.3051C66.8307 0.0396118 62.5422 5.92988 61.6446 11.6205V0.0396118H38.9059C35.7145 0.0396118 34.2185 1.03796 32.7226 3.23433L26.5392 12.3193H117.195V0.0396118ZM4 47.9604H20.2562L40.6013 15.0149L26.0406 13.6172L4 47.9604ZM132.952 0.0396118H119.588V12.3193H132.952V0.0396118ZM218.023 19.2079L176.036 16.7121C176.036 23.1015 180.225 27.4943 187.406 27.9934L217.225 30.2896C219.519 30.4893 220.915 31.0883 220.915 32.9852C220.915 34.7822 219.32 35.4811 215.929 35.4811H175.238V47.9604H216.826C229.891 47.9604 235.676 43.368 235.676 32.8853C235.875 23.5009 230.689 20.0066 218.023 19.2079Z" fill="white"/>
<path id="Vector_2" d="M175.538 16.7121L162.373 15.9134V29.9901C162.373 34.3829 160.179 35.7806 152.5 35.7806H141.928C135.645 35.7806 132.952 33.9835 132.952 29.9901V14.6155L119.588 13.6172V31.1882H119.289C118.491 26.0966 116.596 20.2063 103.831 19.3078L61.9438 16.5124C61.9438 22.9018 66.5314 26.7954 73.7121 27.4943L102.933 30.4893C105.227 30.689 106.923 31.3878 106.923 33.2847C106.923 35.3812 105.227 35.5809 102.534 35.5809H61.4452V16.4126L48.0812 15.514V47.9604H102.634C114.801 47.9604 118.691 41.6708 119.289 36.3796H119.588C121.084 44.7657 128.365 47.9604 140.731 47.9604H154.295C168.756 47.9604 175.538 43.5677 175.538 33.1849V16.7121ZM234.878 12.3193V0.0396118H189.899C180.524 0.0396118 176.335 5.83005 175.538 11.4208C175.538 11.5206 175.538 11.5206 175.538 11.6205V0.0396118H162.373V12.3193H234.878Z" fill="white"/>
</g>
<defs>
<filter id="filter0_d_18_246" x="0" y="0.0396118" width="239.681" height="55.9208" filterUnits="userSpaceOnUse" color-interpolation-filters="sRGB">
<feFlood flood-opacity="0" result="BackgroundImageFix"/>
<feColorMatrix in="SourceAlpha" type="matrix" values="0 0 0 0 0 0 0 0 0 0 0 0 0 0 0 0 0 0 127 0" result="hardAlpha"/>
<feOffset dy="4"/>
<feGaussianBlur stdDeviation="2"/>
<feComposite in2="hardAlpha" operator="out"/>
<feColorMatrix type="matrix" values="0 0 0 0 0 0 0 0 0 0 0 0 0 0 0 0 0 0 0.7 0"/>
<feBlend mode="normal" in2="BackgroundImageFix" result="effect1_dropShadow_18_246"/>
<feBlend mode="normal" in="SourceGraphic" in2="effect1_dropShadow_18_246" result="shape"/>
</filter>
</defs>
</svg>
