<svg width="106" height="74" viewBox="0 0 106 74" fill="none" xmlns="http://www.w3.org/2000/svg">
<g id="Mercedes-Benz svg" clip-path="url(#clip0_18_196)" filter="url(#filter0_d_18_196)">
<g id="Logo_with_name">
<g id="Group">
<g id="Group_2">
<path id="outer_24_" d="M72.6336 20.4053C72.6336 31.1463 63.7349 39.8384 52.7386 39.8384C41.7423 39.8384 32.8436 31.1463 32.8436 20.4053C32.8436 9.66425 41.7423 0.972107 52.7386 0.972107C63.7349 0.972107 72.6336 9.66425 72.6336 20.4053ZM52.7386 2.15176C42.378 2.15176 34.0513 10.2851 34.0513 20.4053C34.0513 30.5254 42.4415 38.6588 52.7386 38.6588C63.0993 38.6588 71.4259 30.4633 71.4259 20.4053C71.4259 10.2851 63.0993 2.15176 52.7386 2.15176Z" fill="url(#paint0_linear_18_196)"/>
<path id="Shape" d="M52.7386 2.15173C42.3779 2.15173 34.0513 10.2851 34.0513 20.4052C34.0513 30.5254 42.4415 38.6587 52.7386 38.6587C63.0992 38.6587 71.4259 30.4633 71.4259 20.4052C71.4259 10.2851 63.0992 2.15173 52.7386 2.15173ZM52.7386 37.4791C43.0771 37.4791 35.259 29.8424 35.259 20.4052C35.259 10.9681 43.0771 3.33138 52.7386 3.33138C62.4 3.33138 70.2182 10.9681 70.2182 20.4052C70.2182 29.8424 62.4 37.4791 52.7386 37.4791Z" fill="url(#paint1_linear_18_196)"/>
<path id="Shape_2" opacity="0.4" d="M52.7385 39.8384C63.7347 39.8384 72.6334 31.1462 72.6334 20.4052C72.6334 9.66423 63.7347 0.972083 52.7385 0.972083C41.7422 0.972083 32.8435 9.66423 32.8435 20.4052C32.8435 31.1462 41.7422 39.8384 52.7385 39.8384ZM52.7385 0.537476C63.9254 0.537476 73.0784 9.47797 73.0784 20.4052C73.0784 31.3325 63.9254 40.273 52.7385 40.273C41.5515 40.273 32.3986 31.3325 32.3986 20.4052C32.3986 9.47797 41.5515 0.537476 52.7385 0.537476Z" fill="url(#paint2_linear_18_196)"/>
<path id="Shape_3" d="M33.797 20.4673C33.797 10.2851 42.2508 1.90338 52.7385 1.90338C63.2263 1.90338 71.6801 10.223 71.6801 20.4673C71.6801 30.6495 63.2263 38.9071 52.7385 38.9071C42.2508 38.9071 33.797 30.6495 33.797 20.4673ZM39.7083 7.67745C36.3395 10.968 34.2419 15.5004 34.2419 20.4673C34.2419 25.4343 36.3395 29.9666 39.6447 33.1951C43.0135 36.4236 47.6536 38.4725 52.7385 38.4725C57.8235 38.4725 62.4636 36.4857 65.7688 33.1951C69.1376 29.9666 71.1716 25.4343 71.1716 20.4673C71.1716 15.5004 69.074 10.968 65.7688 7.67745C62.4636 4.38685 57.8235 2.33799 52.7385 2.33799C47.6536 2.33799 43.0135 4.38685 39.7083 7.67745Z" fill="white"/>
<path id="Shape_4" opacity="0.4" d="M52.7385 37.5412C48.0349 37.5412 43.6491 35.7407 40.3439 32.5121C37.0386 29.2836 35.1953 24.9996 35.1953 20.4052C35.1953 15.8108 37.0386 11.5268 40.3439 8.29831C43.6491 5.0698 48.0349 3.26929 52.7385 3.26929C57.4421 3.26929 61.8279 5.0698 65.1331 8.29831C68.4384 11.5268 70.2817 15.8108 70.2817 20.4052C70.2817 24.9996 68.4384 29.2836 65.1331 32.5121C61.8279 35.7407 57.4421 37.5412 52.7385 37.5412ZM52.7385 37.0445C57.2514 37.0445 61.5736 35.306 64.7517 32.2017C67.9934 29.0353 69.7096 24.8755 69.7096 20.4673C69.7096 16.0592 67.9299 11.8373 64.7517 8.73292C61.5101 5.5665 57.2514 3.89015 52.7385 3.89015C48.2256 3.89015 43.9033 5.62858 40.7252 8.73292C37.4836 11.7752 35.7038 15.9971 35.7038 20.4052C35.7038 24.8134 37.4836 29.0353 40.6617 32.1396C43.9033 35.306 48.2256 37.0445 52.7385 37.0445Z" fill="url(#paint3_linear_18_196)"/>
<path id="Shape_5" d="M68.1841 28.4765C67.8663 28.2281 55.5987 18.7289 55.5987 18.7289L52.7384 2.77258C52.5478 2.83467 52.2935 3.02093 52.1664 3.26928L50.1324 18.791L37.4835 28.2902C37.4835 28.2902 37.2293 28.6007 37.1021 28.7869C37.0386 28.9111 37.0386 29.0974 37.0386 29.2836L52.6749 23.0129L68.3112 29.2836C68.4383 28.9732 68.3112 28.6628 68.1841 28.4765Z" fill="white"/>
<path id="Shape_6" d="M52.8656 20.902L52.7385 23.7579L67.1036 29.4078C67.6121 29.6562 67.9935 29.532 68.3748 29.2837L53.0563 20.8399C52.9928 20.7778 52.8656 20.8399 52.8656 20.902Z" fill="#565F64"/>
<path id="Shape_7" d="M52.8657 20.902C52.8657 20.902 53.692 22.3299 54.6455 23.3233C55.9803 24.7513 57.76 25.7447 57.76 25.7447L67.1037 29.4078C67.6122 29.6562 67.9935 29.532 68.3749 29.2837L53.0564 20.8399C52.9928 20.7778 52.8657 20.8399 52.8657 20.902Z" fill="url(#paint4_linear_18_196)"/>
<path id="Shape_8" d="M68.3112 28.7248C68.3112 28.6627 68.2477 28.6007 68.1841 28.4765L55.0903 19.1014L53.3105 20.2189C53.3105 20.2189 53.4377 20.281 53.5012 20.2189C53.6919 20.1569 54.0733 20.0948 54.4547 20.2189C54.7725 20.3431 68.3112 28.7869 68.3112 28.7869C68.3112 28.7869 68.3112 28.7869 68.3112 28.7248Z" fill="#A4AAAE" fillOpacity="0.6"/>
<path id="Shape_9" d="M67.8663 28.1661L55.6624 18.7289L55.0903 19.1014L68.1842 28.5386C68.1206 28.4144 67.9935 28.2902 67.8663 28.1661Z" fill="#333E46"/>
<path id="Shape_10" d="M53.0563 19.9706C52.9927 20.0327 52.9927 20.0327 52.9927 20.0327C52.9927 20.0327 52.9927 20.1569 53.1199 20.0948C53.1834 20.0327 55.0267 19.1014 55.6624 18.7289L53.4377 3.82804C53.3741 3.26926 53.1199 3.02092 52.6749 2.83466L52.9292 20.0948L53.0563 19.9706Z" fill="#565F64"/>
<path id="Shape_11" d="M51.9758 3.8281V4.63522L50.5774 18.3564C50.5774 18.5427 50.641 18.7289 50.8316 18.8531L51.658 19.474L52.23 4.32479L52.2936 3.14514C52.1029 3.26932 52.0393 3.51766 51.9758 3.8281Z" fill="#A4AAAE" fillOpacity="0.6"/>
<path id="Shape_12" d="M51.213 19.7222L50.4502 19.1014L37.5471 28.2281C37.5471 28.2281 37.1657 28.4765 37.1022 28.7248L37.5471 28.4765L51.0859 20.1569C51.3401 20.0327 51.4037 19.9085 51.213 19.7222Z" fill="#A4AAAE" fillOpacity="0.6"/>
<path id="Shape_13" d="M52.5478 20.902C52.5478 20.8399 52.4842 20.7778 52.4206 20.8399L37.0386 29.3457C37.4199 29.5941 37.8013 29.6562 38.3098 29.4699L52.6749 23.82L52.5478 20.902Z" fill="#565F64"/>
<path id="Shape_14" d="M52.9928 20.0327L53.0564 19.9706C52.9928 20.0327 52.9928 20.0327 52.9928 20.0327C52.9928 20.0327 52.9928 20.0948 53.0564 20.0948H53.1199C53.1835 20.0327 55.0268 19.1014 55.6624 18.7289L55.4082 16.9284L53.4377 3.82807C53.4377 3.57972 53.3742 3.39346 53.247 3.26929C53.247 3.26929 54.2005 15.8108 54.2005 17.1767C54.2005 18.9772 52.9928 20.0327 52.9928 20.0327Z" fill="url(#paint5_linear_18_196)"/>
<path id="Shape_15" d="M52.5478 20.902C52.5478 20.8399 52.4842 20.7778 52.4206 20.8399L37.0386 29.3457C37.4199 29.5941 37.8013 29.6562 38.3098 29.4699L52.6749 23.82L52.5478 20.902Z" fill="url(#paint6_linear_18_196)" fillOpacity="0.8"/>
<path id="Shape_16" opacity="0.8" d="M38.3099 29.4078L52.675 23.7579L52.5478 21.0261C52.2936 21.7711 51.8487 22.5782 50.641 23.1991C49.7511 23.6958 41.2338 27.7935 38.1828 29.2215C37.9921 29.3457 37.7378 29.4078 37.6107 29.4699C37.865 29.594 38.0557 29.5319 38.3099 29.4078Z" fill="url(#paint7_linear_18_196)"/>
<path id="Shape_17" d="M53.0563 19.9706C52.9927 20.0327 52.9927 20.0327 52.9927 20.0327C52.9927 20.0327 52.9927 20.1569 53.1199 20.0948C53.1834 20.0327 55.0267 19.1014 55.6624 18.7289L53.4377 3.82804C53.3741 3.26926 53.1199 3.02092 52.6749 2.83466L52.9292 20.0948L53.0563 19.9706Z" fill="url(#paint8_linear_18_196)"/>
<path id="Shape_18" d="M53.0563 19.9706C52.9927 20.0327 52.9927 20.0327 52.9927 20.0327C52.9927 20.0327 52.9927 20.1569 53.1199 20.0948C53.1834 20.0327 55.0267 19.1014 55.6624 18.7289L53.4377 3.82804C53.3741 3.26926 53.1199 3.02092 52.6749 2.83466L52.9292 20.0948L53.0563 19.9706Z" fill="url(#paint9_linear_18_196)"/>
<path id="Shape_19" d="M35.6404 28.104C35.1954 27.1106 32.6529 22.2678 35.4497 12.9548H34.3691C33.7971 14.8174 33.3521 15.935 33.0979 17.6113C33.0979 17.6113 32.9708 18.2322 32.9072 18.9152C32.8436 19.5981 32.8436 19.9706 32.8436 20.4052C32.8436 24.1304 33.7971 26.3035 33.7971 26.3035C34.8141 29.4078 36.5938 32.2017 39.0092 34.3127C41.1067 36.1132 44.3484 37.4791 47.018 37.9758C46.5731 37.9137 38.9456 34.7473 35.6404 28.104Z" fill="url(#paint10_linear_18_196)"/>
<path id="Shape_20" d="M52.9927 20.7778H52.4207C52.4842 20.7778 52.5478 20.7778 52.5478 20.8399L52.6749 23.6959H52.7385L52.8656 20.8399C52.8656 20.7778 52.9292 20.7157 52.9927 20.7778Z" fill="url(#paint11_linear_18_196)"/>
<path id="Shape_21" d="M59.0947 1.96545C65.7688 4.44892 72.0614 11.2785 72.0614 19.9085C72.0614 30.3391 63.5441 38.845 52.7385 38.845V39.8384C63.5441 39.8384 72.6335 31.1462 72.6335 20.4052C72.6335 11.8372 67.04 4.63518 59.0947 1.96545Z" fill="url(#paint12_linear_18_196)"/>
<path id="Shape_22" d="M69.7732 13.0791C65.3238 3.08309 55.281 2.52431 54.7089 2.46222C54.7089 2.46222 54.7089 2.46222 54.6454 2.46222C62.3364 3.82813 67.2307 8.73298 68.9469 13.8862V13.9483C69.7096 15.935 70.091 18.046 70.1546 20.3432C70.2181 22.5162 69.7096 24.9376 68.7562 27.1727C68.6926 27.4832 68.6291 27.8557 68.5655 27.8557H69.5825C72.6335 22.2679 71.2987 16.618 69.7732 13.0791Z" fill="url(#paint13_linear_18_196)"/>
<path id="Shape_23" d="M33.797 20.4673C33.797 10.2851 42.2508 1.90338 52.7385 1.90338C63.2263 1.90338 71.6801 10.223 71.6801 20.4673C71.6801 30.6495 63.2263 38.9071 52.7385 38.9071C42.2508 38.9071 33.797 30.6495 33.797 20.4673ZM39.7083 7.67745C36.3395 10.968 34.2419 15.5004 34.2419 20.4673C34.2419 25.4343 36.3395 29.9666 39.6447 33.1951C43.0135 36.4236 47.6536 38.4725 52.7385 38.4725C57.8235 38.4725 62.4636 36.4857 65.7688 33.1951C69.1376 29.9666 71.1716 25.4343 71.1716 20.4673C71.1716 15.5004 69.074 10.968 65.7688 7.67745C62.4636 4.38685 57.8235 2.33799 52.7385 2.33799C47.6536 2.33799 43.0135 4.38685 39.7083 7.67745Z" fill="#FBFBFB"/>
<path id="Shape_24" d="M37.42 28.3523L50.3867 19.2256C51.0859 19.5981 52.23 20.0948 52.3572 20.0948C52.4843 20.1569 52.4843 20.0327 52.4843 20.0327L50.8952 18.7289C50.7045 18.6047 50.641 18.4185 50.641 18.2322L52.1665 3.26929C52.1029 3.33137 52.1029 3.45555 52.0394 3.51763C51.9758 3.64181 51.9758 3.70389 51.9758 3.82807L49.7511 18.791L37.5472 28.1661C37.4836 28.2282 37.42 28.2902 37.42 28.3523Z" fill="#333F47"/>
</g>
</g>
<g id="Logo_brand-without-claim">
<path id="rect2" d="M70.5359 60.4246H66.4679V61.4179H70.5359V60.4246Z" fill="white"/>
<path id="path4" d="M6.62295 55.5828L6.27227 63.7567V63.9288C6.27227 64.6171 6.44761 64.7892 7.58735 64.8753V65.2194C6.7983 65.1334 6.44761 65.1334 6.00925 65.1334C5.57089 65.1334 5.2202 65.1334 4.43115 65.2194V64.8753C5.57089 64.7892 5.74623 64.7032 5.74623 63.8428L6.09692 56.099V56.013C6.09692 55.3246 5.8339 55.1526 4.78184 55.0665V54.6363C5.39554 54.7224 5.65856 54.7224 6.09692 54.7224C6.71063 54.7224 6.97364 54.7224 7.58735 54.6363L10.5682 62.6382L13.6367 54.6363C14.3381 54.7224 14.6888 54.7224 15.2148 54.7224C15.6532 54.7224 15.9162 54.7224 16.5299 54.6363V55.0665C15.4778 55.1526 15.2148 55.3246 15.2148 56.013V56.099L15.3902 63.8428C15.3902 64.7032 15.5655 64.7892 16.7052 64.8753V65.2194C15.6532 65.1334 15.3025 65.1334 14.6888 65.1334C14.0751 65.1334 13.7244 65.1334 12.6723 65.2194V64.8753C13.7244 64.7892 13.9874 64.6171 13.9874 63.9288V63.8428L13.8121 55.6688L11.0942 62.6382L10.9189 63.1544L10.6559 63.7567L10.4805 64.359L10.3052 64.8753H10.0422L9.86682 64.359L9.6038 63.7567L9.42846 63.1544L9.25311 62.5521L6.62295 55.5828ZM20.8258 64.8753C19.3354 64.8753 18.7217 63.7567 18.7217 61.2615H23.5437C23.5437 58.8523 22.4916 57.5617 20.5628 57.5617C18.634 57.5617 17.4066 59.1105 17.4066 61.5196C17.4066 63.9288 18.634 65.3915 20.6505 65.3915C22.2286 65.3915 23.2806 64.445 23.456 62.8103H22.8423C22.6669 64.1009 21.9656 64.8753 20.8258 64.8753ZM18.7217 60.6592C18.897 58.8523 19.5107 57.9059 20.5628 57.9059C21.6149 57.9059 22.1409 58.7663 22.2286 60.6592H18.7217ZM24.4204 58.078V57.8199C25.2971 57.7338 25.9108 57.6478 26.5245 57.4757C26.6122 58.078 26.6122 58.3361 26.6999 58.7663V58.9384C27.0505 58.078 27.7519 57.4757 28.541 57.4757C29.33 57.4757 29.9437 57.9919 29.9437 58.7663C29.9437 59.1965 29.6807 59.5407 29.2423 59.5407C28.8917 59.5407 28.541 59.2826 28.541 59.0244C28.541 59.0244 28.541 58.9384 28.541 58.8523V58.6803V58.5942C28.541 58.3361 28.3656 58.2501 28.0149 58.2501C27.1382 58.2501 26.6122 59.2826 26.6122 60.8313V64.1009C26.6122 64.7892 26.7875 64.8753 27.7519 64.9613V65.3055C26.8752 65.2194 26.5245 65.2194 25.9985 65.2194C25.3848 65.2194 25.1218 65.2194 24.1574 65.3055V64.9613C25.1218 64.8753 25.2971 64.7892 25.2971 64.1009V59.1105V58.8523C25.2971 58.164 25.2094 58.078 24.3327 58.078H24.4204ZM36.1684 57.3896V59.9709H35.8177C35.5547 58.5942 34.941 57.9059 33.9766 57.9059C32.7492 57.9059 32.0478 59.1965 32.0478 61.4336C32.0478 63.6707 32.6615 64.7892 33.889 64.7892C34.8533 64.7892 35.4671 64.1009 35.6424 62.7242H36.3438C36.1684 64.445 35.204 65.3055 33.8013 65.3055C31.9602 65.3055 30.6451 63.7567 30.6451 61.4336C30.6451 59.1105 31.9602 57.4757 33.8013 57.4757C34.5027 57.4757 34.941 57.6478 35.4671 58.164L35.9054 57.3896H36.1684ZM40.9027 64.8753C39.4123 64.8753 38.7986 63.7567 38.7986 61.2615H43.6206C43.6206 58.8523 42.5685 57.5617 40.6397 57.5617C38.7109 57.5617 37.4835 59.1105 37.4835 61.5196C37.4835 63.9288 38.7109 65.3915 40.7274 65.3915C42.3055 65.3915 43.3575 64.445 43.5329 62.8103H42.9192C42.7438 64.1009 42.0425 64.8753 40.9027 64.8753ZM38.7986 60.6592C38.9739 58.8523 39.5876 57.9059 40.6397 57.9059C41.6918 57.9059 42.2178 58.7663 42.3055 60.6592H38.7986ZM51.0727 63.5846V54.4642C50.2836 54.6363 49.5823 54.8084 48.6179 54.8944V55.1526C49.6699 55.1526 49.7576 55.2386 49.7576 56.099V58.8523C49.1439 57.9059 48.7055 57.6478 47.8288 57.6478C46.0754 57.6478 44.9356 59.2826 44.9356 61.5196C44.9356 63.7567 46.163 65.3915 47.9165 65.3915C48.7932 65.3915 49.4946 64.9613 49.9329 64.1009C50.0206 64.7032 50.0206 64.7892 50.196 65.3915C50.8973 65.2194 51.1604 65.1334 52.0371 65.0473H52.3001V64.7892C51.1604 64.6171 51.0727 64.5311 51.0727 63.5846ZM48.0042 64.9613C46.8644 64.9613 46.2507 63.7567 46.2507 61.5196C46.2507 59.1965 46.7767 58.078 48.0042 58.078C49.2316 58.078 49.8453 59.2826 49.8453 61.6057C49.7576 63.7567 49.1439 64.9613 48.0042 64.9613ZM56.2453 64.8753C54.7549 64.8753 54.1412 63.7567 54.1412 61.2615H58.9632C58.9632 58.8523 57.9111 57.5617 55.9823 57.5617C54.0535 57.5617 52.8261 59.1105 52.8261 61.5196C52.8261 63.9288 54.0535 65.3915 56.07 65.3915C57.6481 65.3915 58.7001 64.445 58.8755 62.8103H58.2618C58.0864 64.1009 57.3851 64.8753 56.2453 64.8753ZM54.1412 60.6592C54.3165 58.8523 54.9302 57.9059 55.9823 57.9059C57.0344 57.9059 57.5604 58.7663 57.6481 60.6592H54.1412ZM60.2782 65.3915V62.7242H60.6289C60.8919 64.1869 61.5933 64.8753 62.7331 64.8753C63.6975 64.8753 64.3988 64.273 64.3988 63.4125C64.3988 62.8963 64.1358 62.5521 63.3468 62.1219L62.7331 61.8638L61.944 61.6057C60.8043 61.0894 60.3659 60.6592 60.3659 59.7128C60.3659 58.4221 61.3303 57.6478 62.8207 57.6478C63.4344 57.6478 63.8728 57.8199 64.4865 58.164L64.7495 57.4757H65.0125V59.8848H64.6618C64.4865 58.5942 63.9605 57.9919 62.9961 57.9919C62.1194 57.9919 61.5056 58.5942 61.5056 59.2826C61.5056 59.8848 61.7687 60.143 63.1714 60.7453L63.8728 61.0034C65.1002 61.5196 65.5386 62.0359 65.5386 62.9823C65.5386 64.273 64.4865 65.2194 62.9084 65.2194C62.207 65.2194 61.5933 65.0473 60.9796 64.5311L60.6289 65.2194H60.2782V65.3915ZM77.6373 57.2176C77.6373 56.3571 77.2866 55.6688 76.6729 55.2386C76.1469 54.8084 75.5332 54.6363 74.4811 54.6363H70.2729V55.0665C71.4126 55.1526 71.5879 55.2386 71.5879 56.099V63.7567C71.5879 64.6171 71.5003 64.7032 70.2729 64.7892V65.1334H74.3058C75.5332 65.1334 76.1469 64.9613 76.8483 64.6171C77.6373 64.1009 78.1633 63.1544 78.1633 62.1219C78.1633 61.2615 77.8127 60.4871 77.1989 60.0569C76.8483 59.7988 76.4976 59.6267 75.8839 59.5407C77.0236 59.1105 77.6373 58.3361 77.6373 57.2176ZM72.903 55.1526H74.3058C75.6208 55.1526 76.2346 55.8409 76.2346 57.3036C76.2346 57.9919 76.0592 58.5942 75.7085 58.9384C75.3578 59.3686 74.9195 59.4546 74.0427 59.4546H72.903V55.1526ZM74.4811 59.8848C75.3578 59.8848 75.7962 60.0569 76.1469 60.4011C76.4976 60.7453 76.7606 61.4336 76.7606 62.208C76.7606 63.7567 75.9715 64.7032 74.4811 64.7032H73.8674C72.9907 64.7032 72.903 64.6171 72.903 63.8428V59.8848H74.4811ZM82.8976 64.8753C81.4072 64.8753 80.7935 63.7567 80.7935 61.2615H85.6155C85.6155 58.8523 84.5634 57.5617 82.6346 57.5617C80.7058 57.5617 79.4784 59.1105 79.4784 61.5196C79.4784 63.9288 80.7058 65.3915 82.7223 65.3915C84.3004 65.3915 85.3524 64.445 85.5278 62.8103H84.9141C84.7387 64.1009 84.0374 64.8753 82.8976 64.8753ZM80.7935 60.6592C80.9688 58.8523 81.5826 57.9059 82.6346 57.9059C83.6867 57.9059 84.2127 58.7663 84.3004 60.6592H80.7935ZM86.4045 58.164V57.9059C87.3689 57.8199 87.8949 57.6478 88.5086 57.3896C88.5963 57.7338 88.5963 58.164 88.684 58.7663C89.2977 57.9059 89.9114 57.5617 90.8758 57.5617C91.8402 57.5617 92.7169 58.078 92.9799 58.8523C93.1553 59.1965 93.2429 59.7128 93.2429 60.3151V64.1009C93.2429 64.7892 93.4183 64.8753 94.3827 64.9613V65.3055C93.5059 65.2194 93.2429 65.2194 92.6292 65.2194C92.0155 65.2194 91.7525 65.2194 90.8758 65.3055V64.9613C91.7525 64.9613 91.9278 64.7892 91.9278 64.1009V60.229C91.9278 58.8523 91.4895 58.3361 90.4374 58.3361C89.3854 58.3361 88.7717 59.0244 88.7717 60.3151V64.1009C88.7717 64.7032 88.947 64.8753 89.8237 64.9613V65.3055C88.947 65.2194 88.684 65.2194 88.0703 65.2194C87.5442 65.2194 87.1936 65.2194 86.3168 65.3055V64.9613C87.2812 64.8753 87.4566 64.7892 87.4566 64.1009V59.1965V58.9384C87.4566 58.2501 87.3689 58.164 86.5798 58.164C86.5798 58.164 86.4922 58.164 86.4045 58.164ZM94.9964 65.2194L99.38 58.164H97.3635C96.3115 58.164 96.0484 58.4221 95.5224 59.7988H95.1717L95.5224 57.7338H101.046L96.6621 64.7892H98.5033C99.5553 64.7892 100.081 64.359 100.52 62.8963H100.87L100.432 65.1334H94.9964V65.2194Z" fill="white"/>
</g>
</g>
</g>
<defs>
<filter id="filter0_d_18_196" x="0.431152" y="0.537476" width="104.615" height="72.925" filterUnits="userSpaceOnUse" color-interpolation-filters="sRGB">
<feFlood flood-opacity="0" result="BackgroundImageFix"/>
<feColorMatrix in="SourceAlpha" type="matrix" values="0 0 0 0 0 0 0 0 0 0 0 0 0 0 0 0 0 0 127 0" result="hardAlpha"/>
<feOffset dy="4"/>
<feGaussianBlur stdDeviation="2"/>
<feComposite in2="hardAlpha" operator="out"/>
<feColorMatrix type="matrix" values="0 0 0 0 0 0 0 0 0 0 0 0 0 0 0 0 0 0 0.7 0"/>
<feBlend mode="normal" in2="BackgroundImageFix" result="effect1_dropShadow_18_196"/>
<feBlend mode="normal" in="SourceGraphic" in2="effect1_dropShadow_18_196" result="shape"/>
</filter>
<linearGradient id="paint0_linear_18_196" x1="496.848" y1="696.344" x2="3488.52" y2="3261.41" gradientUnits="userSpaceOnUse">
<stop stop-color="white"/>
<stop offset="0.1" stop-color="#CDD0D0"/>
<stop offset="0.2" stop-color="#A5ACAF"/>
<stop offset="0.3" stop-color="#98A0A4"/>
<stop offset="0.4" stop-color="#828A8F"/>
<stop offset="0.5" stop-color="#667075"/>
<stop offset="0.6" stop-color="#535C63"/>
<stop offset="0.7" stop-color="#475158"/>
<stop offset="0.8" stop-color="#434D54"/>
<stop offset="1" stop-color="#475157"/>
</linearGradient>
<linearGradient id="paint1_linear_18_196" x1="472.631" y1="654.063" x2="3277.13" y2="3065.83" gradientUnits="userSpaceOnUse">
<stop stop-color="#0B1F2A"/>
<stop offset="0.2" stop-color="#333F47"/>
<stop offset="0.5" stop-color="#81898D"/>
<stop offset="0.7" stop-color="#B3B8B8"/>
<stop offset="0.8" stop-color="#DEE0DD"/>
<stop offset="1" stop-color="#FBFBFB"/>
</linearGradient>
<linearGradient id="paint2_linear_18_196" x1="2763.83" y1="3856.57" x2="1428.53" y2="98.7901" gradientUnits="userSpaceOnUse">
<stop stop-color="#E1E3E1"/>
<stop offset="0.1" stop-color="#C1C5C4"/>
<stop offset="0.3" stop-color="#9BA1A2"/>
<stop offset="0.5" stop-color="#7D8487"/>
<stop offset="0.7" stop-color="#687074" stop-opacity="0"/>
<stop offset="0.8" stop-color="#5B6469" stop-opacity="0"/>
<stop offset="1" stop-color="#576065" stop-opacity="0"/>
</linearGradient>
<linearGradient id="paint3_linear_18_196" x1="912.354" y1="232.99" x2="2605.6" y2="3235.18" gradientUnits="userSpaceOnUse">
<stop stop-color="#E1E3E1"/>
<stop offset="0.1" stop-color="#C1C5C4"/>
<stop offset="0.3" stop-color="#9BA1A2"/>
<stop offset="0.5" stop-color="#7D8487"/>
<stop offset="0.7" stop-color="#687074" stop-opacity="0"/>
<stop offset="0.8" stop-color="#5B6469" stop-opacity="0"/>
<stop offset="1" stop-color="#576065" stop-opacity="0"/>
</linearGradient>
<linearGradient id="paint4_linear_18_196" x1="834.681" y1="451.324" x2="781.242" y2="541.433" gradientUnits="userSpaceOnUse">
<stop stop-color="#27343C"/>
<stop offset="1" stop-color="#00111E" stop-opacity="0"/>
</linearGradient>
<linearGradient id="paint5_linear_18_196" x1="194.26" y1="1536.81" x2="69.1048" y2="1330.89" gradientUnits="userSpaceOnUse">
<stop offset="0.1" stop-color="#02131F"/>
<stop offset="0.9" stop-color="#02131F" stop-opacity="0"/>
</linearGradient>
<linearGradient id="paint6_linear_18_196" x1="1607.03" y1="391.219" x2="1354.49" y2="465.085" gradientUnits="userSpaceOnUse">
<stop offset="0.2" stop-color="#02131F"/>
<stop offset="0.9" stop-color="#02131F" stop-opacity="0"/>
</linearGradient>
<linearGradient id="paint7_linear_18_196" x1="838.495" y1="489.093" x2="822.881" y2="449.132" gradientUnits="userSpaceOnUse">
<stop stop-color="#02131F"/>
<stop offset="0.1" stop-color="#02131F"/>
<stop offset="1" stop-color="#02131F" stop-opacity="0"/>
</linearGradient>
<linearGradient id="paint8_linear_18_196" x1="204.494" y1="841.006" x2="195.469" y2="842.093" gradientUnits="userSpaceOnUse">
<stop offset="0.3" stop-color="#02131F"/>
<stop offset="0.8" stop-color="#02131F" stop-opacity="0"/>
</linearGradient>
<linearGradient id="paint9_linear_18_196" x1="204.675" y1="834.797" x2="198.134" y2="835.671" gradientUnits="userSpaceOnUse">
<stop offset="0.4" stop-color="#27343C"/>
<stop offset="1" stop-color="#3B474E" stop-opacity="0"/>
</linearGradient>
<linearGradient id="paint10_linear_18_196" x1="503.147" y1="813.874" x2="1343.42" y2="1310.29" gradientUnits="userSpaceOnUse">
<stop stop-color="#25323B" stop-opacity="0"/>
<stop offset="0.1" stop-color="#27343C"/>
</linearGradient>
<linearGradient id="paint11_linear_18_196" x1="81.0237" y1="321.34" x2="81.0237" y2="23.3238" gradientUnits="userSpaceOnUse">
<stop offset="0.3" stop-color="#A5ABAF"/>
<stop offset="1" stop-color="#A5ABAF" stop-opacity="0"/>
</linearGradient>
<linearGradient id="paint12_linear_18_196" x1="1050.67" y1="1.96545" x2="1050.67" y2="3789.26" gradientUnits="userSpaceOnUse">
<stop stop-color="#6B7378"/>
<stop offset="0.2" stop-color="#333F47"/>
<stop offset="0.5" stop-color="#27343C"/>
<stop offset="0.8" stop-color="#333F47"/>
<stop offset="1" stop-color="#434D54"/>
</linearGradient>
<linearGradient id="paint13_linear_18_196" x1="1134.32" y1="312.896" x2="457.387" y2="1329.32" gradientUnits="userSpaceOnUse">
<stop offset="0.7" stop-color="#49545B"/>
<stop offset="0.8" stop-color="white" stop-opacity="0"/>
</linearGradient>
<clipPath id="clip0_18_196">
<rect width="96.6146" height="64.925" fill="white" transform="translate(4.43115 0.537476)"/>
</clipPath>
</defs>
</svg>
