<svg width="239" height="45" viewBox="0 0 239 45" fill="none" xmlns="http://www.w3.org/2000/svg">
<g id="R &#206;&#155; Z &#206;&#158; R svg" filter="url(#filter0_d_18_146)">
<g id="layer1">
<g id="g244">
<path id="polygon151" d="M151.497 1.25659V5.1608H173.812L176.036 1.25659H151.497Z" fill="#00FF00"/>
<path id="polygon153" d="M151.497 17.0423V20.9465H173.812L176.036 17.0423H151.497Z" fill="#00FF00"/>
<path id="polygon155" d="M151.497 32.8279V36.7321H173.812L176.036 32.8279H151.497Z" fill="#00FF00"/>
<path id="path157" d="M225.126 12.2492V9.99896C225.126 8.8509 224.903 7.71409 224.469 6.65342C224.035 5.59275 223.398 4.62898 222.596 3.81718C221.794 3.00539 220.841 2.36142 219.793 1.92208C218.745 1.48274 217.622 1.25659 216.487 1.25659H200.576V36.7433H204.434V20.9915H211.661L220.668 36.7433H225.115L216.109 20.9915H216.476C217.611 20.993 218.736 20.7679 219.785 20.3293C220.835 19.8906 221.789 19.2469 222.592 18.4349C223.396 17.623 224.033 16.6587 224.468 15.5973C224.903 14.5359 225.126 13.3982 225.126 12.2492ZM204.434 5.16088H216.487C217.754 5.16385 218.969 5.67453 219.865 6.5812C220.761 7.48787 221.265 8.71673 221.268 9.99896V12.2492C221.265 13.5314 220.761 14.7603 219.865 15.667C218.969 16.5736 217.754 17.0843 216.487 17.0873H204.434V5.16088Z" fill="#00FF00"/>
<path id="path159" d="M28.7877 12.2492V9.99896C28.7877 8.8509 28.5643 7.71409 28.1301 6.65342C27.6959 5.59275 27.0595 4.62898 26.2573 3.81718C25.455 3.00539 24.5026 2.36142 23.4545 1.92208C22.4063 1.48274 21.2828 1.25659 20.1483 1.25659H4.23703V36.7433H8.09531V20.9915H15.356L24.3624 36.7433H28.81L19.8036 20.9915H20.1705C22.458 20.9855 24.6497 20.0618 26.2652 18.423C27.8806 16.7841 28.7877 14.5639 28.7877 12.2492ZM8.09531 5.16088H20.1483C21.4154 5.16385 22.6298 5.67453 23.5258 6.5812C24.4218 7.48787 24.9265 8.71673 24.9294 9.99896V12.2492C24.9265 13.5314 24.4218 14.7603 23.5258 15.667C22.6298 16.5736 21.4154 17.0843 20.1483 17.0873H8.09531V5.16088Z" fill="#00FF00"/>
<path id="polygon161" d="M65.5359 11.6753L75.543 36.732H79.7015L67.6151 6.46596L65.5359 1.25659L63.4566 6.46596L51.3703 36.732H55.5288L65.5359 11.6753Z" fill="#00FF00"/>
<path id="path163" d="M228.206 1.25659H230.664V1.75168H229.719V4.69953H229.163V1.75168H228.206V1.25659Z" fill="#00FF00"/>
<path id="path165" d="M231.609 1.26794H232.554L233.288 3.95702L234.044 1.26794H235V4.69959H234.455V1.87549H234.4L233.599 4.56462H233.032L232.176 1.87549V4.69959H231.631L231.609 1.26794Z" fill="#00FF00"/>
<path id="polygon167" d="M102.406 1.25659V5.1608H120.43L104.641 32.8278L102.406 36.732H106.865H124.867L127.09 32.8278H109.089L124.878 5.1608L127.102 1.25659H122.654H102.406Z" fill="#00FF00"/>
<path id="polygon169" d="M151.497 1.25659V5.1608H173.812L176.036 1.25659H151.497Z" fill="#00FF00"/>
<path id="polygon171" d="M151.497 17.0423V20.9465H173.812L176.036 17.0423H151.497Z" fill="#00FF00"/>
<path id="polygon173" d="M151.497 32.8279V36.7321H173.812L176.036 32.8279H151.497Z" fill="#00FF00"/>
<path id="polygon179" d="M65.5359 11.6753L75.543 36.732H79.7015L67.6151 6.46596L65.5359 1.25659L63.4566 6.46596L51.3703 36.732H55.5288L65.5359 11.6753Z" fill="#00FF00"/>
</g>
</g>
</g>
<defs>
<filter id="filter0_d_18_146" x="-0.318909" y="0.694092" width="239.875" height="44.6118" filterUnits="userSpaceOnUse" color-interpolation-filters="sRGB">
<feFlood flood-opacity="0" result="BackgroundImageFix"/>
<feColorMatrix in="SourceAlpha" type="matrix" values="0 0 0 0 0 0 0 0 0 0 0 0 0 0 0 0 0 0 127 0" result="hardAlpha"/>
<feOffset dy="4"/>
<feGaussianBlur stdDeviation="2"/>
<feComposite in2="hardAlpha" operator="out"/>
<feColorMatrix type="matrix" values="0 0 0 0 0 0 0 0 0 0 0 0 0 0 0 0 0 0 0.7 0"/>
<feBlend mode="normal" in2="BackgroundImageFix" result="effect1_dropShadow_18_146"/>
<feBlend mode="normal" in="SourceGraphic" in2="effect1_dropShadow_18_146" result="shape"/>
</filter>
</defs>
</svg>
