<svg width="221" height="38" viewBox="0 0 221 38" fill="none" xmlns="http://www.w3.org/2000/svg">
<g id="VERTAGEAR svg" clip-path="url(#clip0_18_229)" filter="url(#filter0_d_18_229)">
<g id="Group">
<path id="Vector" d="M106.153 1.39288H110.515L119.779 24.0063H115.071L108.353 6.48051L101.604 24.0063H96.8923L106.153 1.39288Z" fill="white"/>
<path id="Vector_2" d="M178.848 1.39288H183.21L192.474 24.0063H187.757L181.04 6.48051L174.291 24.0063H169.579L178.848 1.39288Z" fill="white"/>
<path id="Vector_3" d="M48.2635 23.9578H31.584V1.44135H48.2635V5.55887H35.7529V10.7372H47.8187V14.6939H35.7529V19.7784H48.2635V23.9578Z" fill="white"/>
<path id="Vector_4" d="M73.2738 23.9578H68.2744L61.7803 16.432H57.742V23.9578H53.5405V1.40936C57.0738 1.40936 60.607 1.44132 64.1423 1.44132C69.3947 1.47431 72.1637 5.01143 72.1637 8.90421C72.1637 11.997 70.7639 15.1124 66.5297 15.9805L73.2779 23.6691L73.2738 23.9578ZM57.742 5.39596V12.6011H64.1412C64.6263 12.6286 65.1118 12.5558 65.568 12.3872C66.0243 12.2186 66.4416 11.9577 66.7947 11.6205C67.1477 11.2832 67.4289 10.8768 67.621 10.4259C67.8132 9.97511 67.9123 9.48941 67.9123 8.99854C67.9123 8.50767 67.8132 8.02196 67.621 7.57113C67.4289 7.1203 67.1477 6.71384 66.7947 6.37661C66.4416 6.03937 66.0243 5.77847 65.568 5.60985C65.1118 5.44123 64.6263 5.36845 64.1412 5.39596H57.742Z" fill="white"/>
<path id="Vector_5" d="M83.7755 5.30114H76.707V1.44135H95.0435V5.30114H87.972V23.9609H83.7704L83.7755 5.30114Z" fill="white"/>
<path id="Vector_6" d="M140.059 6.84438C138.508 5.41614 136.491 4.61469 134.393 4.59283C129.617 4.59283 126.72 8.25881 126.72 12.8918C126.72 16.5908 128.853 20.4176 134.393 20.4176C136.232 20.4696 138.025 19.8284 139.423 18.6186V14.6289H133.724V10.833H143.274V20.3176C142.197 21.6308 140.838 22.6785 139.3 23.3809C137.761 24.0834 136.085 24.422 134.398 24.3712C126.025 24.3712 122.619 18.8042 122.619 12.8877C122.619 6.5516 126.534 0.69696 134.398 0.69696C137.497 0.698091 140.471 1.93467 142.674 4.13819L140.059 6.84438Z" fill="white"/>
<path id="Vector_7" d="M165.361 23.9578H148.68V1.44135H165.361V5.55887H152.851V10.7372H164.916V14.6939H152.851V19.7784H165.361V23.9578Z" fill="white"/>
<path id="Vector_8" d="M216.599 23.9578H211.599L205.105 16.432H201.063V23.9578H196.861V1.40936C200.395 1.40936 203.928 1.44132 207.462 1.44132C212.715 1.47431 215.484 5.01143 215.484 8.90421C215.484 11.997 214.083 15.1124 209.851 15.9805L216.599 23.6691V23.9578ZM201.064 5.40111V12.6063H207.462C207.947 12.6338 208.433 12.561 208.889 12.3924C209.345 12.2238 209.762 11.9628 210.115 11.6256C210.468 11.2884 210.75 10.8819 210.942 10.4311C211.134 9.98026 211.233 9.49456 211.233 9.00369C211.233 8.51282 211.134 8.02711 210.942 7.57628C210.75 7.12546 210.468 6.71899 210.115 6.38176C209.762 6.04453 209.345 5.78362 208.889 5.615C208.433 5.44639 207.947 5.37361 207.462 5.40111H201.064Z" fill="white"/>
<g id="Group_2">
<path id="Vector_9" d="M9.37356 1.40955H4.04565L11.6498 19.8631L14.273 13.4229L9.37356 1.40955Z" fill="white"/>
<path id="Vector_10" d="M13.0017 23.0579L15.6096 29.2991L24.0911 8.68054H18.8183L13.0017 23.0579Z" fill="white"/>
<path id="Vector_11" d="M14.2545 6.30729H25.0603L27.0682 1.40833H12.2885L14.2545 6.30729Z" fill="white"/>
</g>
</g>
</g>
<defs>
<filter id="filter0_d_18_229" x="0.0456543" y="0.70105" width="220.552" height="36.5979" filterUnits="userSpaceOnUse" color-interpolation-filters="sRGB">
<feFlood flood-opacity="0" result="BackgroundImageFix"/>
<feColorMatrix in="SourceAlpha" type="matrix" values="0 0 0 0 0 0 0 0 0 0 0 0 0 0 0 0 0 0 127 0" result="hardAlpha"/>
<feOffset dy="4"/>
<feGaussianBlur stdDeviation="2"/>
<feComposite in2="hardAlpha" operator="out"/>
<feColorMatrix type="matrix" values="0 0 0 0 0 0 0 0 0 0 0 0 0 0 0 0 0 0 0.7 0"/>
<feBlend mode="normal" in2="BackgroundImageFix" result="effect1_dropShadow_18_229"/>
<feBlend mode="normal" in="SourceGraphic" in2="effect1_dropShadow_18_229" result="shape"/>
</filter>
<clipPath id="clip0_18_229">
<rect width="212.552" height="28.5979" fill="white" transform="translate(4.04565 0.70105)"/>
</clipPath>
</defs>
</svg>
